<?xml version="1.0" encoding="UTF-8" standalone="no"?>
<!-- Created with Inkscape (http://www.inkscape.org/) -->

<svg
   width="210mm"
   height="297mm"
   viewBox="0 0 210 297"
   version="1.1"
   id="svg5"
   inkscape:version="1.1.1 (3bf5ae0d25, 2021-09-20)"
   sodipodi:docname="Entradas.svg"
   xmlns:inkscape="http://www.inkscape.org/namespaces/inkscape"
   xmlns:sodipodi="http://sodipodi.sourceforge.net/DTD/sodipodi-0.dtd"
   xmlns="http://www.w3.org/2000/svg"
   xmlns:svg="http://www.w3.org/2000/svg">
  <sodipodi:namedview
     id="namedview7"
     pagecolor="#505050"
     bordercolor="#eeeeee"
     borderopacity="1"
     inkscape:pageshadow="0"
     inkscape:pageopacity="0"
     inkscape:pagecheckerboard="0"
     inkscape:document-units="mm"
     showgrid="false"
     inkscape:zoom="0.96048671"
     inkscape:cx="452.37482"
     inkscape:cy="386.78307"
     inkscape:window-width="1600"
     inkscape:window-height="837"
     inkscape:window-x="-8"
     inkscape:window-y="-8"
     inkscape:window-maximized="1"
     inkscape:current-layer="layer1" />
  <defs
     id="defs2" />
  <g
     inkscape:label="Capa 1"
     inkscape:groupmode="layer"
     id="layer1">
    <path
       style="fill:none;stroke:#000000;stroke-width:3.16789px;stroke-linecap:butt;stroke-linejoin:miter;stroke-opacity:1"
       d="M 9.8274118,210.2582 V 35.960677 c 0,0 -4.9e-6,-26.5973538 33.0394042,-26.5973538 H 166.61443 c 0,0 24.02866,-1.4856107 24.02866,19.2406368 V 209.1264 c 0,0 1.4172,18.67475 -24.02866,18.67475 H 29.651055 c 0,0 -19.8236432,0.99894 -19.8236432,-17.54295 z"
       id="path100"
       sodipodi:nodetypes="ccccccscc" />
    <path
       style="fill:#cccccc;stroke:none;stroke-width:1.47239"
       d="M 89.079754,851.6559 C 63.831916,844.9186 49.233033,830.32966 45.039701,807.64583 43.91282,801.54998 43.435583,700.03154 43.435583,466.41597 c 0,-292.38668 0.27175,-333.92312 2.249955,-343.90136 2.73238,-13.78235 12.894244,-35.073063 21.454818,-44.951233 8.492584,-9.799716 24.501522,-20.683028 38.187484,-25.960894 24.03292,-9.268076 12.133,-8.903097 290.27988,-8.903097 280.71072,0 263.15964,-0.596812 284.83239,9.685523 12.86333,6.102835 23.81387,17.405246 28.78109,29.7059 l 3.41684,8.461338 V 449.07975 807.60736 l -4.32673,8.83436 c -7.96067,16.25417 -22.83854,27.6907 -44.51395,34.21767 -8.03831,2.42051 -26.2786,2.6026 -287.60104,2.87095 -241.25689,0.24775 -280.114387,-0.006 -287.116566,-1.87444 z"
       id="path2003"
       transform="scale(0.26458333)" />
    <rect
       style="fill:#803300;stroke-width:0.264583"
       id="rect2138"
       width="60.188644"
       height="60.188656"
       x="68.953987"
       y="104.40491" />
    <rect
       style="fill:#00ff00;stroke-width:0.264583"
       id="rect2326"
       width="49.865032"
       height="23.763803"
       x="68.564415"
       y="39.736195" />
    <path
       style="fill:#00ff00;stroke-width:0.137734"
       d="m 118.19421,70.669202 c 0.0467,-6.167506 0.0848,-20.515842 0.0848,-31.885183 V 18.112483 l 15.35734,15.356877 c 8.44653,8.44628 15.35734,15.40061 15.35734,15.454064 0,0.08885 -29.06122,31.13891 -30.33264,32.408497 l -0.55173,0.550934 z"
       id="path2651" />
  </g>
</svg>
